<?xml version="1.0" encoding="UTF-8"?>
<svg width="2495px" height="1599px" viewBox="0 0 2495 1599" version="1.1" xmlns="http://www.w3.org/2000/svg" xmlns:xlink="http://www.w3.org/1999/xlink">
    <!-- Generator: Sketch 52.6 (67491) - http://www.bohemiancoding.com/sketch -->
    <title>Business</title>
    <desc>Created with Sketch.</desc>
    <defs>
        <path d="M2210.762,1259.425 L123.977,1259.425 C123.977,1259.425 13.593,928.273 0.452,791.607 C-12.689,654.941 263.271,725.907 510.321,623.407 C757.371,520.907 786.281,447.318 838.845,218.665 C891.409,-9.988 1114.805,-178.192 1269.869,347.446 C1424.933,873.084 1627.303,589.24 1771.854,678.598 C1916.405,767.956 1968.969,565.586 2155.57,626.034 C2342.171,686.482 2210.762,1172.694 2210.762,1259.425 Z" id="path-1"></path>
    </defs>
    <g id="ðŸž-Vela-mission-ilustration" stroke="none" stroke-width="1" fill="none" fill-rule="evenodd">
        <g id="Business" transform="translate(-753.000000, -401.000000)">
            <g transform="translate(752.000000, 400.000000)" id="Mission">
                <g transform="translate(0.453000, 0.940000)">
                    <g id="Cloud-16" transform="translate(0.000000, 793.000000)" fill="#CDE2FF">
                        <path d="M275.833,115.814 L0.546,115.814 C0.546,115.814 22.482,-41.023 81.707,59.878 C81.707,59.878 132.158,-78.314 184.802,67.556 C184.8,67.557 275.833,36.847 275.833,115.814 Z" id="Path_894"></path>
                    </g>
                    <path d="M2327.285,1598.659 L240.5,1598.659 C240.5,1598.659 469.154,1493.531 456.012,1356.87 C442.87,1220.209 379.794,1065.136 626.844,962.636 C873.894,860.136 902.804,786.547 955.368,557.894 C1007.932,329.241 1231.328,161.037 1386.392,686.675 C1541.456,1212.313 1743.826,928.469 1888.377,1017.827 C2032.928,1107.185 1909.403,1306.927 2096.004,1367.377 C2282.605,1427.827 2327.285,1511.928 2327.285,1598.659 Z" id="Path_895" fill="#E3EEFF"></path>
                    <g id="Object-8" transform="translate(1667.324000, 237.919000)">
                        <path d="M69.343,638.612 L396.234,717.487 C447.591,729.879 497.015,690.963 497.015,638.131 L497.015,158.623 C497.015079,120.13546 470.132743,86.8761012 432.501,78.805 L105.61,8.693 C81.5029109,3.52229495 56.3503121,9.52406888 37.1751866,25.0225364 C18.0000611,40.521004 6.8568849,63.8556165 6.857,88.511 L6.857,559.256 C6.85653248,596.965396 32.6854555,629.767624 69.343,638.612 Z" id="Path_896" fill="#FFFFFF"></path>
                        <path d="M415.566,726.654 C408.511354,726.651895 401.481877,725.812695 394.625,724.154 L67.734,645.281 C27.9457264,635.774867 -0.0915567152,600.168005 -5.42101086e-20,559.26 L-5.42101086e-20,88.511 C0.000473897855,61.7853299 12.0795779,36.4915258 32.8648083,19.6916555 C53.6500387,2.89178516 80.9145316,-3.61426642 107.046,1.99 L433.937,72.101 C474.631998,81.0073903 503.694634,116.964153 503.869,158.622 L503.869,638.134 C503.85157,686.929675 464.364476,726.516493 415.569,726.657 L415.566,726.654 Z M70.949,631.948 L397.841,710.823 C420.120625,716.199788 443.635529,711.06204 461.64244,696.883087 C479.649351,682.704134 490.159155,661.05024 490.158,638.131 L490.158,158.622 C490.010607,123.417413 465.449235,93.0311312 431.058,85.506 L104.171,15.395 C82.08832,10.6593913 59.0483143,16.157608 41.4836616,30.3545697 C23.9190088,44.5515313 13.7114885,65.9262541 13.711,88.511 L13.711,559.256 C13.6327148,593.825411 37.325686,623.915377 70.949,631.948 Z" id="Path_897" fill="#9082B5" fill-rule="nonzero"></path>
                        <g id="Puzzle" transform="translate(129.676000, 167.081000)">
                            <path d="M125.276,86.774 C121.918,85.938 115.232,87.552 115.232,87.552 C111.341,88.494 108.125,85.565 107.832,80.972 L107.825,80.238 L107.825,43.393 L100.792,41.641 L100.792,41.625 L68.079,33.478 C67.557,33.349 67.203,33.27 67.039,33.235 C67.127,33.255 67.264,33.281 67.469,33.316 C62.945,31.897 60.818,28.154 62.73,24.739 C62.73,24.739 66.009,18.866 66.009,15.51 C66.009,9.046 60.147,2.349 52.917,0.549 C45.687,-1.251 39.817,2.524 39.817,8.988 C39.817,12.344 43.1,19.85 43.1,19.85 C45.009,24.217 42.881,26.9 38.361,26.068 L37.628,25.894 L24.291,22.573 L0.733,16.706 L0.733,16.722 L1.333,16.872 L1.333,53.713 L1.34,54.449 C1.634,59.04 4.849,61.971 8.74,61.027 C8.74,61.027 15.427,59.413 18.784,60.249 C25.248,61.859 30.484,69.029 30.484,76.259 C30.484,83.489 25.245,88.049 18.784,86.439 C15.428,85.603 8.74,80.653 8.74,80.653 C4.849,77.776 1.635,79.104 1.34,83.553 C1.327,83.345 1.32,83.21 1.318,83.118 C1.323,83.286 1.334,83.642 1.334,84.161 L1.334,123.861 C2.565,124.161 5.417,124.868 7.242,125.32 L37.742,132.9 C38.262,133.029 38.612,133.106 38.779,133.143 C38.692,133.126 38.556,133.096 38.351,133.06 C42.873,134.483 44.999,138.224 43.091,141.637 C43.091,141.637 39.811,147.507 39.811,150.865 C39.811,157.33 45.669,164.028 52.903,165.83 C60.137,167.632 66.003,163.854 66.003,157.387 C66.003,154.03 62.719,146.526 62.719,146.526 C60.812,142.162 62.938,139.48 67.46,140.309 L68.193,140.482 L84.258,144.5 L84.258,144.513 L99.713,148.362 C100.295,148.507 107.818,150.396 107.818,150.396 L107.818,110.684 C107.818,110.165 107.808,109.809 107.804,109.641 C107.804,109.732 107.813,109.868 107.825,110.076 C108.119,105.629 111.335,104.302 115.225,107.176 C115.225,107.176 121.911,112.125 125.269,112.961 C131.732,114.571 136.969,110.013 136.969,102.781 C136.969,95.549 131.738,88.384 125.276,86.774 Z" id="Path_905" fill="#FF90C6"></path>
                            <path d="M243.156,138.16 C243.156,138.16 236.47,139.779 233.112,138.943 C226.649,137.333 221.412,130.166 221.412,122.933 C221.412,115.7 226.651,111.143 233.112,112.753 C236.469,113.589 243.156,118.534 243.156,118.534 C247.047,121.416 250.263,120.086 250.556,115.64 L250.564,114.908 L250.564,78.064 L244.725,76.611 L244.725,76.595 L224.454,71.546 L212.012,68.446 C211.49,68.316 211.136,68.237 210.971,68.202 C211.035,68.217 211.134,68.235 211.253,68.257 L181.564,60.863 L168.227,57.542 L166.749,57.174 L144.67,51.674 L144.67,51.69 L145.27,51.84 L145.27,88.685 L145.278,89.421 C145.571,94.012 148.787,96.943 152.678,95.999 C152.678,95.999 159.364,94.385 162.722,95.221 C169.186,96.831 174.422,104 174.422,111.231 C174.422,118.462 169.183,123.021 162.722,121.411 C159.365,120.575 152.678,115.625 152.678,115.625 C148.787,112.749 145.571,114.076 145.278,118.525 C145.265,118.316 145.258,118.181 145.256,118.089 C145.261,118.257 145.271,118.615 145.271,119.132 L145.271,158.832 C146.502,159.132 149.355,159.84 151.18,160.291 L181.68,167.871 C182.199,168 182.55,168.077 182.717,168.114 C182.629,168.097 182.494,168.067 182.289,168.031 C186.809,169.454 188.938,173.197 187.029,176.609 C187.029,176.609 183.748,182.479 183.748,185.835 C183.748,192.302 189.608,199 196.842,200.8 C204.076,202.6 209.942,198.824 209.942,192.358 C209.942,189 206.66,181.496 206.66,181.496 C204.752,177.133 206.878,174.45 211.4,175.279 L212.133,175.452 L228.196,179.47 L228.196,179.483 L243.653,183.332 C244.088,183.44 248.416,184.532 250.564,185.067 L250.564,145.356 C250.564,144.837 250.574,144.486 250.578,144.319 C250.578,144.41 250.569,144.543 250.556,144.744 C250.263,140.15 247.047,137.222 243.156,138.16 Z" id="Path_940" fill="#3B427B"></path>
                            <path d="M209.792,297.845 C209.792,294.489 206.513,286.985 206.513,286.985 C204.601,282.617 206.73,279.934 211.249,280.764 L211.982,280.94 L248.827,290.115 L248.827,283.083 L248.841,283.083 L248.841,250.37 C248.841,249.85 248.832,249.492 248.827,249.327 C248.827,249.416 248.837,249.556 248.853,249.765 C249.145,245.313 252.353,243.987 256.253,246.865 C256.253,246.865 262.942,251.81 266.299,252.646 C272.764,254.256 277.999,249.698 277.999,242.468 C277.999,235.238 272.762,228.068 266.299,226.457 C262.941,225.62 256.253,227.238 256.253,227.238 C252.362,228.179 249.153,225.25 248.853,220.657 L248.841,219.921 L248.841,183.031 L248.827,183.031 L248.827,183.631 L211.982,174.455 L211.249,174.28 C206.73,173.448 204.601,176.133 206.513,180.501 C206.513,180.501 209.792,188.001 209.792,191.361 C209.792,197.825 203.929,201.603 196.698,199.803 C189.467,198.003 183.603,191.303 183.603,184.839 C183.603,181.482 186.885,175.613 186.885,175.613 C188.793,172.198 186.666,168.452 182.145,167.032 C182.35,167.07 182.484,167.098 182.575,167.117 C182.408,167.08 182.053,167.003 181.535,166.873 L141.835,156.987 C141.835,158.22 141.844,161.074 141.848,162.898 L141.865,193.407 C141.865,193.927 141.876,194.28 141.881,194.448 C141.876,194.36 141.871,194.222 141.856,194.013 C141.556,198.461 138.347,199.789 134.456,196.913 C134.456,196.913 127.77,191.968 124.414,191.132 C117.947,189.521 112.708,194.075 112.708,201.308 C112.708,208.541 117.947,215.708 124.414,217.32 C127.77,218.156 134.456,216.538 134.456,216.538 C138.346,215.598 141.556,218.526 141.856,223.12 L141.865,223.856 L141.848,239.917 L141.835,239.917 L141.835,255.372 C141.835,255.954 141.818,263.472 141.818,263.472 L181.534,273.362 C182.052,273.492 182.407,273.57 182.574,273.606 C182.483,273.586 182.349,273.559 182.144,273.521 C186.665,274.942 188.792,278.687 186.884,282.102 C186.884,282.102 183.602,287.972 183.602,291.328 C183.602,297.791 189.464,304.49 196.697,306.292 C203.93,308.094 209.792,304.312 209.792,297.845 Z" id="Path_941" fill="#AC7DFD"></path>
                        </g>
                    </g>
                    <g id="Object-9" transform="translate(194.168000, 263.367000)">
                        <path d="M534.981,690.626 L106.881,795.583 C56.007,808.056 6.906,769.539 6.906,717.158 L6.906,183.099 C6.90646039,145.271636 33.166638,112.514369 70.088,104.285 L498.188,8.87 C522.102524,3.53996264 547.143614,9.35637385 566.260464,24.68151 C585.377314,40.0066461 596.501945,63.1826988 596.502,87.684 L596.502,612.202 C596.501662,649.391472 571.100911,681.771123 534.981,690.626 Z" id="Path_898" fill="#FFFFFF"></path>
                        <path d="M87.469,804.851 C39.1328352,804.707751 0.0190718146,765.493373 0,717.157 L0,183.098 C-0.000132713287,142.033713 28.5071548,106.47317 68.588,97.54 L496.688,2.125 C522.648453,-3.66000958 549.831398,2.65460672 570.583358,19.2909415 C591.335318,35.9272763 603.411572,61.0857919 603.412,87.683 L603.412,612.201 C603.483144,652.597594 575.878637,687.787192 536.627,697.337 L108.527,802.294 C101.635785,803.988695 94.5655358,804.847211 87.469,804.851 Z M515.884,13.824 C510.436724,13.8256038 505.006124,14.425874 499.69,15.614 L71.59,111.029 C37.7368597,118.40656 13.6520366,148.450682 13.816,183.098 L13.816,717.157 C13.8157389,739.835198 24.2369913,761.255617 42.0801934,775.252789 C59.9233954,789.24996 83.2091186,794.271112 105.235,788.871 L533.335,683.914 C566.39832,675.869537 589.650741,646.227826 589.591,612.2 L589.591,87.683 C589.580633,46.9550209 556.610873,13.9177175 515.883,13.824 L515.884,13.824 Z" id="Path_899" fill="#9082B5" fill-rule="nonzero"></path>
                        <g id="Target-3" transform="translate(186.282000, 242.303000)">
                            <g id="Group" transform="translate(0.100000, 0.390000)" fill="#AC7DFD">
                                <ellipse id="Ellipse_58-2" cx="139.367" cy="170.723" rx="138.467" ry="170.113"></ellipse>
                            </g>
                            <path d="M139.467,307.2 C109.879,307.2 82.067,293.045 61.14,267.341 C40.213,241.637 28.695,207.463 28.695,171.112 C28.695,134.761 40.214,100.588 61.14,74.885 C82.066,49.182 109.879,35.026 139.467,35.026 C169.055,35.026 196.867,49.182 217.794,74.885 C238.721,100.588 250.238,134.763 250.238,171.112 C250.238,207.461 238.716,241.637 217.794,267.341 C196.872,293.045 169.054,307.2 139.467,307.2 Z" id="Path_900" fill="#FAFCFB"></path>
                            <path d="M139.467,273.175 C117.277,273.175 96.415,262.559 80.724,243.282 C65.033,224.005 56.391,198.374 56.391,171.112 C56.391,143.85 65.032,118.221 80.724,98.943 C96.416,79.665 117.277,69.05 139.467,69.05 C161.657,69.05 182.518,79.667 198.21,98.944 C213.902,118.221 222.543,143.851 222.543,171.111 C222.543,198.371 213.9,224.004 198.21,243.281 C182.52,262.558 161.657,273.175 139.467,273.175 Z" id="Path_901" fill="#AC7DFD"></path>
                            <path d="M139.467,239.149 C124.674,239.149 110.767,232.071 100.307,219.222 C89.847,206.373 84.087,189.286 84.087,171.112 C84.087,152.938 89.847,135.854 100.307,123.003 C110.767,110.152 124.674,103.076 139.467,103.076 C154.26,103.076 168.167,110.152 178.626,123.003 C189.085,135.854 194.847,152.939 194.847,171.112 C194.847,189.285 189.086,206.371 178.626,219.222 C168.166,232.073 154.254,239.149 139.467,239.149 Z" id="Path_902" fill="#FAFCFB"></path>
                            <path d="M139.468,198.583 C133.495,198.583 127.88,195.726 123.657,190.537 C114.924397,179.059169 114.924397,163.164831 123.657,151.687 C127.881,146.499 133.496,143.641 139.468,143.641 C145.44,143.641 151.056,146.499 155.279,151.687 C164.011603,163.164831 164.011603,179.059169 155.279,190.537 C151.055,195.726 145.44,198.583 139.468,198.583 Z" id="Path_903" fill="#FF73B7"></path>
                            <path d="M271.807,8.526 C271.16267,7.64015005 270.133396,7.11605437 269.038,7.11605437 C267.942604,7.11605437 266.91333,7.64015005 266.269,8.526 L253.869,23.756 L250.886,10.008 L221.586,46.008 L223.129,61.526 L136.697,167.712 C135.170151,169.721541 135.170151,172.502459 136.697,174.512 C137.341545,175.39786 138.37097,175.921933 139.4665,175.921933 C140.56203,175.921933 141.591455,175.39786 142.236,174.512 L228.919,68.018 L241.635,69.926 L270.935,33.926 L259.669,30.235 L271.803,15.327 C273.331879,13.3182717 273.333516,10.5365254 271.807,8.526 Z" id="Path_904" fill="#423565"></path>
                        </g>
                    </g>
                    <g id="Object-10" transform="translate(142.805000, 339.234000)">
                        <g id="Group_545-Clipped">
                            <mask id="mask-2" fill="white">
                                <use xlink:href="#path-1"></use>
                            </mask>
                            <g id="Path_918"></g>
                            <g id="Group_545" mask="url(#mask-2)">
                                <g transform="translate(50.000000, 728.000000)" id="Plants-3">
                                    <g transform="translate(0.242000, 0.543000)">
                                        <g id="Plant-8" transform="translate(0.000000, 59.119000)">
                                            <path d="M479.9,491.228 C479.9,491.228 521.478,423.473 523.017,369.577 C524.556,315.681 457.717,302.304 446.939,239.169 C436.161,176.034 452.182,120.113 387.506,90.855 C322.83,61.597 221.198,20.02 221.198,0.001 C221.198,0.001 252.66,122.501 305.016,156.381 C357.372,190.261 335.15,294.122 369.027,343.399 L479.9,491.228 Z" id="Path_906" fill="#AACEF2"></path>
                                            <path d="M474.534,501.988 C479.302428,489.862085 483.036411,477.354481 485.696,464.599 C487.00177,458.230319 487.941974,451.792125 488.512,445.316 C488.703,442.074 489.012,438.839 488.983,435.592 C488.983,433.97 489.067,432.347 489.009,430.727 L488.809,425.867 C488.173477,412.907917 485.332763,400.152095 480.409,388.148 C479.028,385.23 477.682,382.287 476.217,379.415 L473.745,375.254 L472.511,373.174 C472.111,372.474 471.586,371.855 471.13,371.19 L468.297,367.272 C467.834748,366.611469 467.330719,365.981182 466.788,365.385 L465.211,363.551 L463.635,361.717 L462.846,360.801 L461.992,359.942 L458.579,356.507 C449.291,347.499 438.441,340.178 428.823,331.207 C423.955909,326.76867 419.479733,321.919786 415.444,316.714 L412.637,312.64 C411.662403,311.309411 410.766858,309.922686 409.955,308.487 L407.521,304.187 C407.121,303.464 406.693,302.76 406.321,302.024 L405.3,299.776 C399.427557,287.912984 396.029343,274.979494 395.312,261.762 C395.051985,255.178031 395.353073,248.583878 396.212,242.051 C396.986,235.534 398.127,229.111 398.935,222.689 C399.857033,216.318913 400.163448,209.874834 399.85,203.446 C399.426775,197.05105 398.132491,190.743814 396.003,184.699 C394.911566,181.680758 393.654661,178.724945 392.238,175.845 C390.859999,172.957862 389.277644,170.172783 387.503,167.511 C385.685137,164.887584 383.638113,162.430619 381.386,160.169 C379.16,157.852 376.78,155.654 374.391,153.469 C364.711,144.821 354.622,136.561 344.591,128.258 L314.422,103.411 C304.363,95.156 293.972,87.333 283.472,79.611 C278.241,75.724 272.992,71.826 268.004,67.584 C263.008598,63.3494004 258.314547,58.7716319 253.956,53.884 C236.572,34.325 232.498,29.72 223.543,5.261 C232.898,29.569 237.327,33.882 254.909,53.022 C259.280475,57.8128613 263.973347,62.3002566 268.955,66.453 C273.934,70.609 279.192,74.439 284.455,78.273 C295.019,85.893 305.529,93.655 315.694,101.84 C325.859,110.025 335.953,118.24 346.035,126.503 C356.117,134.766 366.21,143.003 375.994,151.693 C378.416,153.893 380.833,156.114 383.13,158.493 C385.484346,160.844975 387.626026,163.400602 389.53,166.13 C391.38129,168.883396 393.032534,171.766138 394.471,174.756 C395.939745,177.719114 397.243731,180.761079 398.377,183.868 C400.602904,190.125093 401.964467,196.656693 402.424,203.282 C402.770562,209.876209 402.476854,216.488487 401.547,223.026 C400.706,229.526 399.547,235.941 398.766,242.364 C397.904793,248.75458 397.58932,255.206888 397.823,261.651 C398.487681,274.543476 401.767844,287.166029 407.464,298.751 L408.454,300.951 C408.814,301.67 409.233,302.358 409.62,303.064 L411.981,307.274 C412.766782,308.676496 413.63497,310.031203 414.581,311.331 L417.306,315.315 C421.243181,320.422864 425.611911,325.183033 430.364,329.543 C432.676,331.798 435.22,333.824 437.655,335.957 L445.208,342.14 C450.275,346.234 455.273,350.494 459.984,355.066 L463.426,358.594 L464.287,359.477 L465.087,360.419 L466.68,362.305 L468.27,364.192 C468.817575,364.805966 469.326234,365.453562 469.793,366.131 L472.648,370.159 C473.107,370.841 473.638,371.476 474.037,372.197 L475.277,374.33 L477.757,378.595 C479.225,381.532 480.565,384.536 481.94,387.517 L483.648,392.135 L484.501,394.444 C484.752,395.225 484.966,396.017 485.201,396.803 L486.576,401.529 C486.976,403.119 487.29,404.729 487.65,406.329 C488.45,409.514 488.779,412.785 489.306,416.018 C489.527,417.641 489.612,419.279 489.771,420.909 C489.91,422.54 490.089,424.169 490.086,425.809 L490.208,430.718 C490.24,432.353 490.132,433.988 490.1,435.618 C490.076,438.891 489.712,442.145 489.467,445.403 C488.789202,451.899919 487.738806,458.352544 486.321,464.729 C483.450665,477.45909 479.50758,489.923279 474.534,501.988 Z" id="Path_907" fill="#FFFFFF"></path>
                                            <path d="M479.896,491.224 C478.371333,490.658667 476.86,490.12 475.362,489.608 C474.968,489.477 474.587,489.332 474.206,489.214 C436.373,476.297 406.571,475.652 366.779,465.192 C332.507,456.177 301.574,419.921 277.315,395.663 C265.83,384.178 254.371,372.469 241.374,362.718 C229.874,354.084 215.867,352.034 201.82,351.601 C164.197,350.432 126.154,352.101 92.671,331.876 C64.838,315.082 51.803,286.001 51.803,254.082 C51.803,162.253 6.256,69.018 1.394,59.346 C1.249,59.046 1.144,58.82 1.065,58.676 C1.039,58.61 1.012,58.558 0.999,58.531 C1.776,58.859 30.96,71.685 82.604,133.973 C134.958,197.102 138.046,257.156 251.991,271.02 C365.936,284.884 402.797,361.114 424.466,400.366 C449.104,445.032 479.896,491.224 479.896,491.224 Z" id="Path_908" fill="#FF90C6"></path>
                                            <path d="M475.363,489.609 C474.969,489.478 474.588,489.333 474.207,489.215 C453.419071,477.458218 433.620618,464.032058 415.007,449.069 C403.331977,439.624841 392.262774,429.455416 381.865,418.621 C371.484,407.753 361.965,396.121 352.219,384.783 C342.473,373.445 332.429,362.325 321.167,352.561 C315.60786,347.667292 309.468939,343.474596 302.888,340.077 C296.28252,336.722059 289.316705,334.129714 282.125,332.35 C267.725,328.723 252.725,327.908 237.825,327.895 C234.106,327.921 230.308,327.895 226.538,327.795 L220.873,327.453 L215.222,326.853 C207.718692,325.884119 200.308187,324.297396 193.066,322.109 C178.594655,317.650168 164.885337,311.01704 152.408,302.437 C139.978714,293.859394 128.672718,283.75878 118.754,272.371 C108.82336,261.013793 100.197164,248.579149 93.037,235.3 C89.4399966,228.678493 86.2068603,221.865705 83.352,214.892 C80.6412726,207.838732 78.5360026,200.567472 77.059,193.157 C75.494,185.798 74.272,178.4 72.788,171.08 C71.3438592,163.766379 69.4118756,156.557604 67.005,149.502 L65.152,144.219 C64.495,142.484 63.733,140.776 63.036,139.055 C61.669,135.573 59.987,132.248 58.371,128.884 C57.596,127.184 56.663,125.572 55.771,123.93 L53.078,119.03 L50.133,114.273 C49.161,112.683 48.201,111.08 47.112,109.555 C38.7956396,97.1199254 29.2474083,85.5545047 18.612,75.034 C13.0926667,69.5673333 7.35433333,64.3416667 1.397,59.357 C1.252,59.057 1.147,58.831 1.068,58.687 C7.284,63.7203333 13.2806667,69.016 19.058,74.574 C29.8838086,84.9963622 39.643111,96.4724952 48.191,108.832 C49.291,110.356 50.28,111.96 51.279,113.55 L54.279,118.333 L57.039,123.248 C57.96,124.891 58.905,126.52 59.693,128.215 C61.362,131.592 63.083,134.943 64.493,138.439 C65.216,140.173 65.993,141.895 66.674,143.639 L68.593,148.948 C71.076218,156.060101 73.0823365,163.3299 74.598,170.709 C76.149,178.055 77.436,185.44 79.053,192.72 C80.5612037,200.001851 82.6889451,207.141494 85.413,214.061 C88.2584164,220.94884 91.4737659,227.677974 95.045,234.219 C102.15414,247.327268 110.714577,259.594656 120.565,270.79 C130.375262,281.998959 141.553628,291.932262 153.838,300.357 C166.122748,308.754082 179.609235,315.240745 193.838,319.596 C200.93686,321.758265 208.202243,323.330279 215.56,324.296 L221.092,324.914 L226.651,325.256 C230.357,325.374 234.051,325.414 237.834,325.401 C252.841,325.44 268.019,326.295 282.725,330.04 C290.082164,331.880211 297.206001,334.551734 303.959,338.003 C310.69445,341.50616 316.974693,345.822399 322.659,350.855 C334.065,360.755 344.079,372.025 353.75,383.471 C363.421,394.917 372.831,406.599 383.068,417.48 C393.343136,428.35078 404.284244,438.572167 415.828,448.085 C434.499681,463.536893 454.411953,477.425146 475.363,489.609 Z" id="Path_909" fill="#FFFFFF"></path>
                                        </g>
                                        <g id="Plant-9" transform="translate(1621.140000, 0.000000)">
                                            <path d="M195.139,152.736 C210.225,196.114 207.386,276.261 179.107,311.15 C150.828,346.039 110.275,396.001 116.871,455.412 C123.047,510.998 74.741,542.497 47.263,546.321 L46.816,546.387 C45.1907471,546.594753 43.5544425,546.704285 41.916,546.715 C41.916,546.715 -37.758,442.205 22.586,356.408 C82.93,270.611 72.561,268.718 74.44,214.026 C76.319,159.334 87.648,102.762 132.904,84.85 C177.872,67.044 152.091,27.831 214.667,22.706 C214.759,22.706 214.851,22.693 214.956,22.693 L215.876,22.614 C215.876,22.614 180.054,109.36 195.139,152.736 Z" id="Path_910" fill="#AACEF2"></path>
                                            <path d="M214.957,22.694 C208.899,29.2513333 202.999,35.9356667 197.257,42.747 C189.044,52.406 181.343,62.485 173.357,72.354 C165.394,82.223 157.325,92.026 150.216,102.486 C146.639449,107.677234 143.409107,113.098662 140.546,118.715 C137.720498,124.335836 135.440722,130.214764 133.738,136.271 C130.240775,148.368574 128.953515,160.997611 129.938,173.552 C130.792,186.115 133.738,198.48 135.273,211.161 C137.093639,223.915554 136.39272,236.903463 133.21,249.388 C131.563029,255.592493 129.359423,261.635674 126.626,267.444 C125.246,270.322 124.026,273.279 122.434,276.064 C120.91,278.864 119.477,281.728 117.743,284.422 C111.173,295.395 103.222,305.461 95.272,315.316 C87.387,325.216 79.595,335.216 74.049,346.516 L71.999,350.747 C71.278,352.153 70.79,353.647 70.186,355.097 L68.438,359.473 L67.007,363.954 C66.559,365.465 66.022,366.937 65.626,368.461 L64.526,373.047 C64.171,374.585 63.777,376.109 63.435,377.647 L62.594,382.286 C61.5506631,388.48175 61.0364746,394.755051 61.057,401.038 C61.07,407.319 61.688,413.601 62.305,419.922 C65.305,445.205 64.013,470.922 59.887,495.969 C57.0366007,513.064928 52.8180443,529.904375 47.272,546.325 L46.825,546.391 C52.1163451,529.863655 56.0625389,512.935487 58.625,495.772 C62.475,470.739 63.525,445.258 60.307,420.12 C59.624,413.825 58.94,407.465 58.875,401.052 C58.8104529,394.643209 59.3073516,388.24108 60.36,381.919 L61.201,377.201 C61.543,375.637 61.924,374.086 62.292,372.523 L63.392,367.858 C63.785,366.307 64.325,364.796 64.784,363.258 L66.23,358.685 L67.992,354.217 C68.608,352.732 69.108,351.208 69.831,349.775 L71.92,345.438 C77.544,333.887 85.442,323.69 93.314,313.755 C101.251,303.847 109.044,293.899 115.496,283.071 C117.204,280.43 118.624,277.617 120.135,274.858 C121.712,272.125 122.908,269.207 124.288,266.382 C126.975897,260.710007 129.148635,254.807936 130.78,248.747 C133.925568,236.574934 134.644567,223.902752 132.896,211.453 C131.437,198.943 128.507,186.498 127.679,173.712 C127.21664,167.315778 127.313341,160.891408 127.968,154.512 C128.664777,148.134558 129.949235,141.835124 131.805,135.694 C133.601315,129.546827 135.978705,123.584603 138.905,117.888 C141.860333,112.227743 145.183107,106.767062 148.852,101.541 C156.132,91.081 164.279,81.317 172.361,71.541 C180.508,61.83 188.38,51.856 196.778,42.329 C202.598,35.653 208.564667,29.113 214.678,22.709 C214.759,22.707 214.851,22.694 214.957,22.694 Z" id="Path_911" fill="#FFFFFF"></path>
                                            <path d="M527.03,0 C525.493,1.183 427.054,76.953 421.43,151.791 C415.778,227.22 393.149,277.191 346.946,315.856 C300.743,354.521 281.885,455.413 185.706,479.921 C89.527,504.429 41.918,546.721 41.918,546.721 C41.918,546.721 41.656,545.263 41.366,542.582 C41.34,542.282 41.3,541.982 41.261,541.649 C39.316,521.819 37.673,448.217 112.161,398.849 C198.918,341.331 258.315,311.159 271.522,233.838 C284.729,156.517 308.29,110.313 353.548,86.738 C398.806,63.163 395.98,45.252 430.87,27.338 C461.028,11.858 510.898,2.712 523.882,0.504 C524.355,0.425 524.789,0.359 525.157,0.304 C526.266,0.105 526.91,0 527.03,0 Z" id="Path_912" fill="#FD9ECC"></path>
                                            <path d="M525.149,0.302 C470.298,23.535 420.967,59.318 380.808,103.002 C369.534934,115.795151 359.482218,129.61391 350.781,144.278 C341.989645,158.868306 335.350831,174.651446 331.07,191.139 C328.849,199.365 326.891,207.697 324.749,216.002 C322.581,224.294 320.228,232.547 317.535,240.707 C316.247,244.794 314.711,248.815 313.317,252.875 C311.845,256.896 310.242,260.875 308.704,264.886 C305.432,272.81 302.055,280.708 298.572,288.513 C295.063,296.319 291.581,304.151 287.902,311.891 C286.102,315.781 284.158,319.605 282.291,323.455 C280.291,327.266 278.415,331.116 276.299,334.861 C272.222923,342.431488 267.739686,349.775584 262.869,356.861 C258.02617,363.990973 252.643724,370.739088 246.769,377.046 L244.561,379.398 C243.838,380.198 243.076,380.975 242.288,381.698 L237.623,386.179 C236.033,387.625 234.364,388.991 232.735,390.41 C231.922,391.11 231.119,391.816 230.279,392.5 L227.715,394.458 C220.908423,399.761294 213.658761,404.469945 206.046,408.532 C198.389708,412.530351 190.344937,415.735996 182.037,418.099 C173.773,420.504 165.322,422.147 156.99,423.96 C148.647923,425.630037 140.459072,427.990494 132.508,431.017 C124.606997,434.151096 117.054464,438.100801 109.973,442.802 C95.728,452.132 83.494,464.327 73.31,477.967 C63.2596144,491.790498 54.9531984,506.801227 48.579,522.659 C45.9256667,529.203 43.521,535.843667 41.365,542.581 C41.339,542.281 41.299,541.981 41.26,541.648 C43.27,535.169 45.505,528.748 47.988,522.423 C54.1935503,506.415041 62.3501457,491.233731 72.273,477.223 C82.3456441,463.230054 94.7954064,451.113003 109.056,441.423 C116.206799,436.611351 123.838494,432.556217 131.828,429.323 C139.851459,426.192773 148.124385,423.744112 156.559,422.003 C164.917,420.111 173.288,418.429 181.435,415.998 C189.582503,413.631154 197.475142,410.461973 204.997,406.537 C212.476489,402.512206 219.598981,397.856659 226.287,392.621 L228.809,390.689 C229.637,390.019 230.425,389.309 231.227,388.613 C232.827,387.22 234.473,385.88 236.037,384.434 L240.623,380.018 C241.4,379.295 242.134,378.533 242.844,377.745 L245.025,375.419 C250.804229,369.187751 256.098025,362.523286 260.86,355.484 C265.661977,348.452672 270.079452,341.166326 274.093,333.657 C276.182,329.951 278.062,326.114 280.02,322.33 C281.886,318.48 283.805,314.682 285.579,310.792 C289.232,303.078 292.688,295.259 296.171,287.454 C299.679667,279.635333 303.061333,271.794667 306.316,263.932 C307.854,259.95 309.458,255.995 310.942,252 C312.335,247.966 313.872,243.984 315.147,239.924 C317.841,231.829 320.193,223.642 322.375,215.39 C324.53,207.124 326.514,198.806 328.761,190.514 C333.132175,173.834394 339.891038,157.874088 348.828,143.128 C353.216,135.728 357.999,128.581 363.058,121.643 C368.144,114.731 373.597,108.082 379.3,101.669 C390.782054,88.9062862 403.22333,77.0403551 416.515,66.175 C423.085,60.695 429.787,55.3596667 436.621,50.169 C440.064,47.62 443.467,45.018 447.015,42.6 L452.271,38.921 L457.646,35.386 C478.573942,21.6985014 500.748113,10.0186162 523.873,0.502 C524.347,0.42 524.781,0.354 525.149,0.302 Z" id="Path_913" fill="#FFFFFF"></path>
                                            <path d="M474.23,353.571 C474.23,353.571 473.599,354.149 472.443,355.253 C472.243,355.437 472.024,355.647 471.786,355.87 C461.799,365.397 423.861,402.731 409.186,433.717 C392.208,469.552 359.211,511.038 297.922,511.038 C236.633,511.038 170.622,538.384 169.679,576.099 C168.917,606.717 86.759,630.292 54.59,587.742 C54.473,587.584 54.354,587.413 54.235,587.256 C46.981,577.44 42.355,564.156 41.922,546.716 C41.922,546.716 98.967,454.466 152.713,456.346 C206.459,458.226 226.25,449.746 252.663,431.838 C279.076,413.93 304.517,404.492 335.635,401.667 C366.753,398.842 388.435,361.114 423.325,359.235 C458.215,357.356 474.23,353.571 474.23,353.571 Z" id="Path_914" fill="#AACEF2"></path>
                                            <path d="M494.701,353.479 C487.01132,353.682709 479.349015,354.48244 471.783,355.871 C472.021,355.648 472.243,355.437 472.44,355.254 C479.802231,354.078866 487.245576,353.485365 494.701,353.479 Z" id="Path_915" fill="#FFFFFF"></path>
                                            <path d="M472.44,355.253 C472.24,355.437 472.021,355.647 471.783,355.87 C468.183,356.553333 464.621667,357.394333 461.099,358.393 C450.176193,361.431539 439.886247,366.402767 430.717,373.071 C429.6,373.952 428.404,374.714 427.353,375.647 L424.134,378.38 L421.125,381.337 C420.114,382.309 419.246,383.426 418.3,384.464 C414.701246,388.804124 411.503799,393.461894 408.747,398.38 C406.000423,403.405612 402.936902,408.251398 399.575,412.888 C396.067193,417.496401 391.859194,421.526915 387.104,424.833 C382.344271,428.109264 377.214865,430.812926 371.822,432.888 C366.404754,434.852622 360.797956,436.248792 355.092,437.054 C349.441,437.947 343.817,438.591 338.285,439.654 C332.75787,440.69937 327.318954,442.166664 322.016,444.043 L318.061,445.502 L314.184,447.171 C311.595,448.262 309.074,449.589 306.523,450.771 C301.503,453.347 296.51,456.001 291.753,459.037 C286.97,462.037 282.353,465.279 277.836,468.696 C273.319,472.113 268.887,475.661 264.288,479.051 C259.689,482.441 254.92,485.635 249.988,488.578 C245.062902,491.501991 239.982397,494.155911 234.769,496.528 C224.39065,501.441969 213.424833,505.004372 202.14,507.128 C190.826,509.178 179.355,509.48 168.105,510.413 C162.4783,510.850262 156.880306,511.600423 151.337,512.66 L147.211,513.58 C146.528,513.738 145.831,513.88 145.161,514.053 L143.124,514.644 L139.063,515.814 C137.709,516.195 136.409,516.747 135.081,517.194 C124.429741,520.985804 114.328356,526.173356 105.041,532.621 C95.7862724,539.141345 87.2494884,546.625236 79.574,554.947 C71.860639,563.2669 64.821117,572.187016 58.522,581.623 C57.182,583.646333 55.868,585.683 54.58,587.733 C54.463,587.575 54.344,587.404 54.225,587.247 C55.425,585.223 56.669,583.226 57.944,581.242 C64.1106688,571.65575 71.0269642,562.573013 78.628,554.079 C86.2797864,545.588859 94.8172974,537.94107 104.095,531.266 C113.44509,524.628433 123.633842,519.259667 134.395,515.3 C135.735,514.827 137.063,514.262 138.429,513.855 L142.557,512.62 L144.619,512.002 C145.302,511.802 146.012,511.66 146.709,511.49 L150.901,510.517 C156.517544,509.402835 162.193616,508.613193 167.901,508.152 C179.281,507.166 190.609,506.838 201.701,504.775 C212.775228,502.64714 223.532512,499.114251 233.712,494.262 C238.833821,491.895591 243.8262,489.258535 248.668,486.362 C253.502,483.462 258.168,480.304 262.714,476.94 C267.26,473.576 271.714,470.054 276.276,466.625 C280.838,463.196 285.554,459.925 290.416,456.901 C295.252,453.826 300.324,451.158 305.423,448.57 C308.012,447.37 310.548,446.047 313.202,444.956 L317.158,443.256 L321.205,441.771 C326.627486,439.870012 332.189585,438.393562 337.841,437.355 C343.478,436.291 349.155,435.655 354.741,434.793 C360.29914,434.028266 365.763891,432.693912 371.049,430.811 C376.294137,428.845144 381.294081,426.27873 385.949,423.163 C390.569199,420.006438 394.673666,416.154621 398.117,411.744 C401.586,407.344 404.372,402.401 407.303,397.525 C410.158073,392.554757 413.456845,387.852936 417.159,383.477 C418.145,382.426 419.038,381.296 420.089,380.323 L423.204,377.34 L426.516,374.593 C427.594,373.647 428.802,372.872 429.946,372.018 C439.324883,365.438283 449.806343,360.591437 460.894,357.707 C464.69858,356.693809 468.552223,355.874751 472.44,355.253 Z" id="Path_917" fill="#FFFFFF"></path>
                                        </g>
                                    </g>
                                </g>
                            </g>
                        </g>
                    </g>
                    <g id="Person-13" transform="translate(529.799000, 410.942000)">
                        <path d="M232.397,185.495 C232.397,185.495 258.022,402.442 234.368,422.358 C210.714,442.274 220.568,511.271 220.568,511.271 L281.673,479.971 C281.673,479.971 308.614,221.061 232.397,185.495 Z" id="Path_919" fill="#1C2454"></path>
                        <path d="M214.656,65.259 C209.4,52.995 204.8,27.807 215.756,21.676 C226.712,15.545 233.277,20.362 233.277,20.362 C233.277,20.362 232.4,-2.416 253.865,0.212 C275.33,2.84 275.765,13.792 275.765,13.792 C275.765,13.792 302.047,-2.416 311.684,28.247 C311.684,28.247 332.271,47.958 312.998,64.603 C312.998,64.603 312.398,90.776 284.198,102.383 C241.833,119.821 214.656,65.259 214.656,65.259 Z" id="Path_920" fill="#FF90C6"></path>
                        <g id="Group_547" transform="translate(209.497000, 46.203000)" fill="#FFD5C0">
                            <path d="M7.045,0 C7.045,0 -19.268,81.215 29.812,76.7 C60.231,73.9 71.24,50.948 71.24,50.948 C71.24,50.948 81.88,54.308 83.18,32.658 C83.957,19.796 67.88,12.877 67.131,33.031 C67.131,33.031 55.562,36.576 53.322,19.408 C51.082,2.24 42.122,2.986 32.422,5.973 C22.722,8.96 8.538,5.226 7.045,0 Z" id="Path_921"></path>
                            <path d="M74.787,48.334 C74.787,48.334 80.012,83.603 90.648,99.466 C90.648,99.466 110.683,103.126 120.583,106.006 C132.629,109.506 71.613,213.114 52.583,183.255 C33.553,153.396 41.76,128.765 41.76,128.765 C41.76,128.765 50.344,117.941 49.597,114.955 C48.85,111.969 34.666,72.034 34.666,72.034 C34.666,72.034 34.292,33.218 74.787,48.334 Z" id="Path_922"></path>
                        </g>
                        <path d="M184.36,247.124 L119.823,341.434 L28.714,190.974 C-8.686,181.633 2.596,216.462 2.596,216.462 C2.596,216.462 87.447,412.873 118.51,411.523 C148.734,410.209 244.591,278.515 272.476,226.783 C276.908,218.561 278.834,214.503 271.415,208.829 C254.042,195.541 219.113,182.128 184.36,247.124 Z" id="Path_923" fill="#FFD5C0"></path>
                        <path d="M223.527,194.26 C199.873,210.686 119.827,341.439 119.827,341.439 L50.614,226.675 L13.382,249.015 C13.382,249.015 93.103,421.162 119.382,413.277 C145.661,405.392 241.593,328.298 270.503,265.222 C299.413,202.146 241.828,186.765 223.527,194.26 Z" id="Path_924" fill="#404884"></path>
                        <path d="M304.675,146.295 C304.675,146.295 364.08,152.795 384.75,159.87 C388.213915,161.035389 390.69254,164.097335 391.111,167.728 C395.066,202.99 390.918,385.894 437.835,457.079 L262.624,459.707 C262.624,459.707 251.871,335.566 229.988,260.184 C219.544,224.203 228.631,189.884 256.215,164.528 L260.653,169.292 L304.675,146.295 Z" id="Path_925" fill="#CDE2FF"></path>
                        <path d="M243.238,176.848 C243.238,176.848 244.974,264.958 248.166,349.806 C250.866,421.511 253.66,492.868 227.579,509.375 C170.634,545.414 170.539,553.081 205.458,461.022 C234.368,384.804 227.477,376.03 227.141,305.302 C226.969,268.912 223.827,232.159 223.541,195.771 L223.529,194.261 L243.238,176.848 Z" id="Path_926" fill="#353B6E"></path>
                        <path d="M319.127,1131.645 C319.285,1132.828 319.444,1134.01 319.6,1135.154 C323.122,1160.384 328.326,1177.205 328.326,1177.205 L196.916,1177.205 L268.311,1136.034 C268.311,1135.784 268.311,1135.495 268.298,1135.154 C268.035,1109.054 257.233,828.391 246.852,782.976 C236.339,736.983 262.621,459.708 262.621,459.708 L403.453,458.617 C419.432,549.947 328.326,779.033 328.326,779.033 C362.492,868.387 315.618,1104.495 319.127,1131.645 Z" id="Path_927" fill="#353B6E"></path>
                        <path d="M331.723,242.464 L334.949,361.938 L154.981,474.565 C138.439,498.474 168.006,500.445 168.006,500.445 C168.006,500.445 360.039,417.427 385.271,399.26 C407.171,383.491 405.823,235.366 398.136,177.101 C396.954154,167.821372 389.218967,160.767133 379.87,160.443 C358.007,159.844 321.837,169.425 331.723,242.464 Z" id="Path_928" fill="#FFD5C0"></path>
                        <path d="M474.19,1178.518 L521.497,1116.756 C521.469839,1116.69298 521.439123,1116.63154 521.405,1116.572 C517.279,1108.372 374.988,825.605 363.805,800.059 C307.956,672.592 313.212,459.708 313.212,459.708 L438.212,458.008 C475.072,552.57 433.455,777.715 433.455,777.715 C488.645,817.142 568.805,1097.042 568.805,1097.042 L569.383,1098.014 L597.715,1145.663 L474.19,1178.518 Z" id="Path_929" fill="#404884"></path>
                        <polygon id="Path_930" fill="#FF73B7" points="252.274 175.863 268.864 175.699 261.964 193.768 251.451 192.29"></polygon>
                        <path d="M252.108,189.661 C252.108,189.661 228.358,354.073 167.132,389.261 L216.687,387.215 C216.687,387.215 268.2,282.136 261.872,193.825 C261.872,193.829 260.036,183.407 252.108,189.661 Z" id="Path_931" fill="#FF73B7"></path>
                        <polygon id="Path_932" fill="#AACEF2" points="260.653 169.292 267.441 194.26 318.691 149.143 297.665 138.63"></polygon>
                        <polygon id="Path_933" fill="#AACEF2" points="255.723 152.209 260.653 169.292 246.853 191.632 242.253 170.932"></polygon>
                        <path d="M364.19,154.269 C350.205,151.669 319.784,148.595 319.784,148.595 C319.784,148.595 305.984,216.835 323.069,313.843 C333.91,375.403 334.733,435.83 311.795,486.343 C299.086,514.327 320.606,546.095 351.264,543.936 C390.475,541.174 438.135,519.266 458.864,466.186 C458.864,466.186 446.598,397.677 433.457,340.564 C420.316,283.451 383.686,158.943 383.686,158.943 C383.686,158.943 378.456,156.92 364.19,154.269 Z" id="Path_934" fill="#353B6E"></path>
                        <path d="M379.576,157.465 C399.287,162.721 418.506,178.655 416.371,242.881 C414.559,297.412 406.912,323.372 402.771,362.054 C400.304945,384.250407 386.684904,403.654715 366.648,413.518 L220.573,485.989 L198.233,447.223 L333.585,361.587 C333.585,361.587 329.643,220.541 330.957,199.516 C332.271,178.491 349.41,149.42 379.576,157.465 Z" id="Path_935" fill="#404884"></path>
                        <path d="M474.191,1178.517 L521.498,1116.755 C521.470839,1116.69198 521.440123,1116.63054 521.406,1116.571 L569.384,1098.016 L597.716,1145.665 L474.191,1178.517 Z" id="Path_936" fill="#353B6E"></path>
                        <path d="M196.916,1177.204 L268.311,1136.033 C268.311,1135.783 268.311,1135.494 268.298,1135.153 L319.598,1135.153 C323.12,1160.383 328.324,1177.204 328.324,1177.204 L196.916,1177.204 Z" id="Path_937" fill="#353B6E"></path>
                        <g id="Laptop-3" transform="translate(47.000000, 290.000000)">
                            <polygon id="Path_938" fill="#AFAFAF" points="207.08 188.761 61.397 188.761 0.437 145.361 144.054 147.427"></polygon>
                            <polyline id="Path_939" fill="#DDDDDD" points="0.442 145.367 61.402 188.767 61.402 53.927 2.896 0.846 0.442 145.367"></polyline>
                        </g>
                    </g>
                    <g id="Cloud-17" transform="translate(2220.000000, 328.000000)" fill="#CDE2FF">
                        <path d="M275.563,115.568 L0.279,115.568 C0.279,115.568 22.215,-41.269 81.44,59.633 C81.44,59.633 131.891,-78.56 184.535,67.31 C184.535,67.31 275.563,36.601 275.563,115.568 Z" id="Path_942"></path>
                    </g>
                    <g id="Cloud-18" transform="translate(1005.000000, 24.000000)" fill="#CDE2FF">
                        <path d="M276.218,115.99 L0.931,115.99 C0.931,115.99 22.866,-40.846 82.091,60.055 C82.091,60.055 132.542,-78.137 185.191,67.732 C185.187,67.732 276.218,37.025 276.218,115.99 Z" id="Path_943"></path>
                    </g>
                    <g id="Person-14" transform="translate(1192.925000, 463.055000)">
                        <path d="M235.567,551.432 C235.567,551.432 245.927,569.496 250.21,575.112 C250.21,575.112 244.51,582.058 236.259,569.899 C228.008,557.74 217.648,559.564 235.567,551.432 Z" id="Path_944" fill="#FFD5C0"></path>
                        <g id="Group_549">
                            <path d="M339.003,38.333 C339.003,38.333 374.484,31.762 390.91,77.756 C407.336,123.75 367.635,138.315 375.798,158.573 C384.668,180.584 416.535,242.673 368.352,236.542 C320.169,230.411 156.344,177.407 339.003,38.333 Z" id="Path_945" fill="#FF73B7"></path>
                            <path d="M303.823,33.432 C333.797,21.632 367.776,38.426 376.964,69.3 C378.378856,74.1120112 379.416992,79.0268565 380.069,84 C384.011,113.239 385.654,134.264 371.199,135.578 C356.744,136.892 351.485,132.295 351.485,132.295 L364.626,174.675 L546.957,174.566 L645.957,58.049 C645.957,58.049 667.42,39.432 666.106,67.685 L569.059,205.065 C563.001745,213.033144 553.568079,217.711873 543.559,217.712 L434.333,217.712 C434.333,217.712 402.408,221.874 412.046,264.8 C421.684,307.726 434.823,382.194 434.823,382.194 L328.823,407.599 L307.798,341.899 C307.798,341.899 134.337,192.092 317.435,178.951 L305.169,134.272 C305.169,134.272 247.997,55.406 303.823,33.432 Z" id="Path_946" fill="#FFD5C0"></path>
                            <path d="M255.23,194.71 C255.23,194.71 227.196,183.321 188.65,365.543 L213.179,546.888 C213.179,546.888 225.445,575.798 237.709,543.388 L228.948,363.796 L278.009,245.527 C278.009,245.527 306.919,188.577 255.23,194.71 Z" id="Path_947" fill="#FFD5C0"></path>
                            <path d="M328.819,407.599 C328.819,407.599 294.652,439.137 307.793,520.611 C307.793,520.611 252.601,644.136 247.345,749.264 C247.345,749.264 183.217,769.413 135.91,1048.001 L179.01,1048.001 C179.01,1048.001 181.638,946.378 302.535,765.033 C423.432,583.688 420.804,385.697 420.804,385.697 L328.819,407.599 Z" id="Path_948" fill="#FF78BA"></path>
                            <path d="M511.479,778.169 C519.364,599.452 434.824,382.187 434.824,382.187 L348.094,402.338 C318.307,454.902 372.185,523.238 372.185,523.238 C372.185,575.802 458.915,775.545 458.915,775.545 C414.236,875.416 497.9,976.602 516.298,1047.563 C516.298,1047.563 516.209,1047.717 516.052,1048.001 L559.152,1048.001 C558.703,1047.3 511.479,778.169 511.479,778.169 Z" id="Path_949" fill="#FD9ECC"></path>
                            <path d="M506.551,1086.982 L506.551,1126.404 L527.577,1126.404 L527.905,1087.804 C527.905,1087.804 566.34,1126.186 598.866,1126.186 L619.892,1126.186 C619.892,1126.186 571.928,1108.886 559.156,1047.997 L516.056,1047.997 C514.465,1050.885 505.655,1067.842 506.551,1086.982 Z" id="Path_950" fill="#353B6E"></path>
                            <path d="M126.409,1086.982 L126.409,1126.404 L147.435,1126.404 L147.763,1087.804 C147.763,1087.804 186.198,1126.186 218.724,1126.186 L239.75,1126.186 C239.75,1126.186 186.459,1097.495 179.012,1047.997 L135.912,1047.997 C134.321,1050.885 125.512,1067.842 126.409,1086.982 Z" id="Path_951" fill="#353B6E"></path>
                            <path d="M546.959,174.56 L308.67,174.56 C308.67,174.56 244.502,181.103 231.158,212.286 C230.858,212.343 230.567,212.391 230.258,212.45 L187.55,361.6 C187.55,361.6 204.633,382.626 231.572,364.885 L260.733,295.204 C261.354333,295.959333 261.99,296.721 262.64,297.489 C289.498277,329.226563 310.592719,365.421294 324.968,404.434 L326.411,408.358 L434.824,382.185 L415.098,280.485 C412.63,267.761 403.066,236.107 435.262,234.136 C467.458,232.165 546.632,218.695 546.632,218.695 C546.632,218.695 541.703,195.805 546.959,174.56 Z" id="Path_952" fill="#3B427B"></path>
                            <path d="M645.956,58.044 C647.665407,54.5856095 648.203141,50.6649249 647.488,46.874 C646.174,40.961 650.988,24.534 647.488,20.812 C647.488,20.812 654.935,18.402 654.278,30.229 C653.621,42.056 653.84,36.8 653.84,36.8 C653.84,36.8 669.609,0.225 672.894,0.005 C676.179,-0.215 673.112,7.452 664.571,28.915 C664.571,28.915 688.444,36.362 683.407,44.466 C678.37,52.57 673.112,57.607 666.107,67.681 C659.102,77.755 645.956,58.044 645.956,58.044 Z" id="Path_953" fill="#FFD5C0"></path>
                            <path d="M237.709,545.132 L238.147,592.253 C238.147,592.253 200.038,607.595 201.791,590.061 C203.544,572.527 213.179,549.516 213.179,549.516 C213.179,549.516 225.882,523.216 237.709,545.132 Z" id="Path_954" fill="#FFD5C0"></path>
                            <path d="M366.928,38.333 C384.784,48.033 338.457,82.575 333.2,94.839 C333.2,94.839 320.059,91.339 321.811,102.724 C323.563,114.109 332.324,113.237 332.324,113.237 C332.324,113.237 324.439,133.386 326.191,147.404 C327.943,161.422 349.845,227.126 310.422,257.788 C270.999,288.45 285.893,367.295 122.945,343.642 C46.727,332.254 67.753,294.583 38.845,276.186 C9.937,257.789 -33.869,217.486 43.225,212.233 C120.319,206.98 104.55,164.05 144.848,153.533 C185.146,143.016 243.848,151.78 252.604,109.733 C261.36,67.686 295.967,-0.214 366.928,38.333 Z" id="Path_955" fill="#FF90C6"></path>
                            <path d="M434.824,382.187 L479.503,493.448 C479.503,493.448 335.829,554.773 280.637,532.871 C280.637,532.871 305.166,420.735 326.411,408.36" id="Path_956" fill="#3B427B"></path>
                        </g>
                    </g>
                    <g id="Arrow" transform="translate(49.719000, 285.218000)" fill="#AC7DFD">
                        <g id="Group_551">
                            <rect id="Rectangle_237" transform="translate(3.983391, 65.887753) rotate(-51.903915) translate(-3.983391, -65.887753) " x="0.0412766837" y="63.9166958" width="7.88422863" height="3.94211432"></rect>
                            <path d="M16.534,53.081 L13.434,50.647 L21.999,39.725 L25.099,42.157 L16.534,53.081 Z M33.667,31.237 L30.567,28.803 L39.134,17.881 L42.234,20.313 L33.667,31.237 Z" id="Path_957" fill-rule="nonzero"></path>
                            <path d="M56.086,9.857 L52.144,9.857 L52.144,7.68 L50.801,9.394 L47.701,6.96 L52.567,0.76 C53.0857825,0.0984268237 53.9670965,-0.161254737 54.7617176,0.113320489 C55.5563388,0.387895714 56.0893242,1.13627756 56.089,1.977 L56.086,9.857 Z" id="Path_958"></path>
                            <path d="M56.086,313.975 L52.144,313.975 L52.144,298.77 L56.086,298.77 L56.086,313.975 Z M56.086,283.564 L52.144,283.564 L52.144,268.358 L56.086,268.358 L56.086,283.564 Z M56.086,253.152 L52.144,253.152 L52.144,237.946 L56.086,237.946 L56.086,253.152 Z M56.086,222.74 L52.144,222.74 L52.144,207.531 L56.086,207.531 L56.086,222.74 Z M56.086,192.328 L52.144,192.328 L52.144,177.123 L56.086,177.123 L56.086,192.328 Z M56.086,161.916 L52.144,161.916 L52.144,146.711 L56.086,146.711 L56.086,161.916 Z M56.086,131.504 L52.144,131.504 L52.144,116.298 L56.086,116.298 L56.086,131.504 Z M56.086,101.092 L52.144,101.092 L52.144,85.886 L56.086,85.886 L56.086,101.092 Z M56.086,70.681 L52.144,70.681 L52.144,55.474 L56.086,55.474 L56.086,70.681 Z M56.086,40.269 L52.144,40.269 L52.144,25.062 L56.086,25.062 L56.086,40.269 Z" id="Path_959" fill-rule="nonzero"></path>
                            <rect id="Rectangle_238" x="52.144" y="329.182" width="3.942" height="7.885"></rect>
                        </g>
                        <g id="Group_552" transform="translate(52.144000, 0.001000)">
                            <rect id="Rectangle_239" transform="translate(52.102391, 65.889247) rotate(-38.096085) translate(-52.102391, -65.889247) " x="50.1313338" y="61.9471327" width="3.94211432" height="7.88422863"></rect>
                            <path d="M39.551,53.08 L30.986,42.157 L34.086,39.725 L42.653,50.647 L39.551,53.08 Z M22.419,31.236 L13.853,20.314 L16.953,17.882 L25.52,28.804 L22.419,31.236 Z" id="Path_960" fill-rule="nonzero"></path>
                            <path d="M3.942,9.856 L0,9.856 L0,1.971 C0.000366499596,1.13038286 0.533573363,0.382409969 1.32811906,0.107938747 C2.12266476,-0.166532475 3.00385502,0.0928450947 3.523,0.754 L8.388,6.954 L5.288,9.388 L3.944,7.674 L3.942,9.856 Z" id="Path_961"></path>
                            <path d="M3.942,313.975 L0,313.975 L0,298.77 L3.942,298.77 L3.942,313.975 Z M3.942,283.564 L0,283.564 L0,268.358 L3.942,268.358 L3.942,283.564 Z M3.942,253.152 L0,253.152 L0,237.946 L3.942,237.946 L3.942,253.152 Z M3.942,222.74 L0,222.74 L0,207.531 L3.942,207.531 L3.942,222.74 Z M3.942,192.328 L0,192.328 L0,177.123 L3.942,177.123 L3.942,192.328 Z M3.942,161.916 L0,161.916 L0,146.711 L3.942,146.711 L3.942,161.916 Z M3.942,131.504 L0,131.504 L0,116.298 L3.942,116.298 L3.942,131.504 Z M3.942,101.092 L0,101.092 L0,85.886 L3.942,85.886 L3.942,101.092 Z M3.942,70.681 L0,70.681 L0,55.474 L3.942,55.474 L3.942,70.681 Z M3.942,40.269 L0,40.269 L0,25.062 L3.942,25.062 L3.942,40.269 Z" id="Path_962" fill-rule="nonzero"></path>
                            <rect id="Rectangle_240" x="0" y="329.182" width="3.942" height="7.885"></rect>
                        </g>
                    </g>
                    <g id="Arrow-2" transform="translate(827.664000, 0.060000)" fill="#AC7DFD">
                        <g id="Group_554">
                            <rect id="Rectangle_241" transform="translate(3.983995, 65.888806) rotate(-51.894000) translate(-3.983995, -65.888806) " x="0.0419952545" y="63.9173056" width="7.884" height="3.943"></rect>
                            <path d="M16.534,53.08 L13.434,50.646 L22.001,39.724 L25.101,42.156 L16.534,53.08 Z M33.667,31.236 L30.567,28.802 L39.134,17.88 L42.234,20.312 L33.667,31.236 Z" id="Path_963" fill-rule="nonzero"></path>
                            <path d="M56.086,9.856 L52.144,9.856 L52.144,7.679 L50.801,9.393 L47.701,6.959 L52.567,0.759 C53.0857825,0.0974268237 53.9670965,-0.162254737 54.7617176,0.112320489 C55.5563388,0.386895714 56.0893242,1.13527756 56.089,1.976 L56.086,9.856 Z" id="Path_964"></path>
                            <path d="M56.086,313.975 L52.144,313.975 L52.144,298.77 L56.086,298.77 L56.086,313.975 Z M56.086,283.564 L52.144,283.564 L52.144,268.358 L56.086,268.358 L56.086,283.564 Z M56.086,253.152 L52.144,253.152 L52.144,237.946 L56.086,237.946 L56.086,253.152 Z M56.086,222.74 L52.144,222.74 L52.144,207.531 L56.086,207.531 L56.086,222.74 Z M56.086,192.328 L52.144,192.328 L52.144,177.123 L56.086,177.123 L56.086,192.328 Z M56.086,161.916 L52.144,161.916 L52.144,146.711 L56.086,146.711 L56.086,161.916 Z M56.086,131.504 L52.144,131.504 L52.144,116.298 L56.086,116.298 L56.086,131.504 Z M56.086,101.092 L52.144,101.092 L52.144,85.886 L56.086,85.886 L56.086,101.092 Z M56.086,70.681 L52.144,70.681 L52.144,55.474 L56.086,55.474 L56.086,70.681 Z M56.086,40.269 L52.144,40.269 L52.144,25.062 L56.086,25.062 L56.086,40.269 Z" id="Path_965" fill-rule="nonzero"></path>
                            <rect id="Rectangle_242" x="52.144" y="329.182" width="3.942" height="7.885"></rect>
                        </g>
                        <g id="Group_555" transform="translate(52.144000, 0.000000)">
                            <rect id="Rectangle_243" transform="translate(52.102784, 65.888938) rotate(-38.096085) translate(-52.102784, -65.888938) " x="50.1312273" y="61.9468242" width="3.94311435" height="7.88422863"></rect>
                            <path d="M39.551,53.08 L30.986,42.157 L34.086,39.725 L42.653,50.647 L39.551,53.08 Z M22.419,31.236 L13.853,20.314 L16.953,17.882 L25.52,28.804 L22.419,31.236 Z" id="Path_966" fill-rule="nonzero"></path>
                            <path d="M3.942,9.856 L0,9.856 L0,1.971 C0.000366499596,1.13038286 0.533573363,0.382409969 1.32811906,0.107938747 C2.12266476,-0.166532475 3.00385502,0.0928450947 3.523,0.754 L8.388,6.954 L5.288,9.388 L3.945,7.674 L3.942,9.856 Z" id="Path_967"></path>
                            <path d="M3.942,313.975 L0,313.975 L0,298.77 L3.942,298.77 L3.942,313.975 Z M3.942,283.564 L0,283.564 L0,268.358 L3.942,268.358 L3.942,283.564 Z M3.942,253.152 L0,253.152 L0,237.946 L3.942,237.946 L3.942,253.152 Z M3.942,222.74 L0,222.74 L0,207.531 L3.942,207.531 L3.942,222.74 Z M3.942,192.328 L0,192.328 L0,177.123 L3.942,177.123 L3.942,192.328 Z M3.942,161.916 L0,161.916 L0,146.711 L3.942,146.711 L3.942,161.916 Z M3.942,131.504 L0,131.504 L0,116.298 L3.942,116.298 L3.942,131.504 Z M3.942,101.092 L0,101.092 L0,85.886 L3.942,85.886 L3.942,101.092 Z M3.942,70.681 L0,70.681 L0,55.474 L3.942,55.474 L3.942,70.681 Z M3.942,40.269 L0,40.269 L0,25.062 L3.942,25.062 L3.942,40.269 Z" id="Path_968" fill-rule="nonzero"></path>
                            <rect id="Rectangle_244" x="0" y="329.182" width="3.942" height="7.885"></rect>
                        </g>
                    </g>
                    <g id="Arrow-3" transform="translate(1529.392000, 39.483000)" fill="#AC7DFD">
                        <g id="Group_557">
                            <rect id="Rectangle_245" transform="translate(3.983995, 65.888806) rotate(-51.894000) translate(-3.983995, -65.888806) " x="0.0419952545" y="63.9173056" width="7.884" height="3.943"></rect>
                            <path d="M16.534,53.08 L13.434,50.646 L22.001,39.724 L25.101,42.156 L16.534,53.08 Z M33.667,31.236 L30.567,28.802 L39.134,17.88 L42.234,20.312 L33.667,31.236 Z" id="Path_969" fill-rule="nonzero"></path>
                            <path d="M56.086,9.856 L52.144,9.856 L52.144,7.679 L50.801,9.393 L47.701,6.959 L52.567,0.759 C53.0857825,0.0974268237 53.9670965,-0.162254737 54.7617176,0.112320489 C55.5563388,0.386895714 56.0893242,1.13527756 56.089,1.976 L56.086,9.856 Z" id="Path_970"></path>
                            <path d="M56.086,313.975 L52.144,313.975 L52.144,298.77 L56.086,298.77 L56.086,313.975 Z M56.086,283.564 L52.144,283.564 L52.144,268.358 L56.086,268.358 L56.086,283.564 Z M56.086,253.152 L52.144,253.152 L52.144,237.946 L56.086,237.946 L56.086,253.152 Z M56.086,222.74 L52.144,222.74 L52.144,207.531 L56.086,207.531 L56.086,222.74 Z M56.086,192.328 L52.144,192.328 L52.144,177.123 L56.086,177.123 L56.086,192.328 Z M56.086,161.916 L52.144,161.916 L52.144,146.711 L56.086,146.711 L56.086,161.916 Z M56.086,131.504 L52.144,131.504 L52.144,116.298 L56.086,116.298 L56.086,131.504 Z M56.086,101.092 L52.144,101.092 L52.144,85.886 L56.086,85.886 L56.086,101.092 Z M56.086,70.681 L52.144,70.681 L52.144,55.474 L56.086,55.474 L56.086,70.681 Z M56.086,40.269 L52.144,40.269 L52.144,25.062 L56.086,25.062 L56.086,40.269 Z" id="Path_971" fill-rule="nonzero"></path>
                            <rect id="Rectangle_246" x="52.144" y="329.182" width="3.942" height="7.885"></rect>
                        </g>
                        <g id="Group_558" transform="translate(52.144000, 0.000000)">
                            <rect id="Rectangle_247" transform="translate(52.102784, 65.888938) rotate(-38.096085) translate(-52.102784, -65.888938) " x="50.1312273" y="61.9468242" width="3.94311435" height="7.88422863"></rect>
                            <path d="M39.551,53.08 L30.986,42.157 L34.086,39.725 L42.653,50.647 L39.551,53.08 Z M22.419,31.236 L13.852,20.313 L16.952,17.881 L25.519,28.803 L22.419,31.236 Z" id="Path_972" fill-rule="nonzero"></path>
                            <path d="M3.942,9.856 L0,9.856 L0,1.971 C0.000366499596,1.13038286 0.533573363,0.382409969 1.32811906,0.107938747 C2.12266476,-0.166532475 3.00385502,0.0928450947 3.523,0.754 L8.388,6.954 L5.288,9.388 L3.945,7.674 L3.942,9.856 Z" id="Path_973"></path>
                            <path d="M3.942,313.975 L0,313.975 L0,298.77 L3.942,298.77 L3.942,313.975 Z M3.942,283.564 L0,283.564 L0,268.358 L3.942,268.358 L3.942,283.564 Z M3.942,253.152 L0,253.152 L0,237.946 L3.942,237.946 L3.942,253.152 Z M3.942,222.74 L0,222.74 L0,207.531 L3.942,207.531 L3.942,222.74 Z M3.942,192.328 L0,192.328 L0,177.123 L3.942,177.123 L3.942,192.328 Z M3.942,161.916 L0,161.916 L0,146.711 L3.942,146.711 L3.942,161.916 Z M3.942,131.504 L0,131.504 L0,116.298 L3.942,116.298 L3.942,131.504 Z M3.942,101.092 L0,101.092 L0,85.886 L3.942,85.886 L3.942,101.092 Z M3.942,70.681 L0,70.681 L0,55.474 L3.942,55.474 L3.942,70.681 Z M3.942,40.269 L0,40.269 L0,25.062 L3.942,25.062 L3.942,40.269 Z" id="Path_974" fill-rule="nonzero"></path>
                            <rect id="Rectangle_248" x="0" y="329.182" width="3.942" height="7.885"></rect>
                        </g>
                    </g>
                    <g id="Arrow-4" transform="translate(2235.062000, 505.986000)" fill="#AC7DFD">
                        <g id="Group_560">
                            <rect id="Rectangle_249" transform="translate(3.983995, 65.888806) rotate(-51.894000) translate(-3.983995, -65.888806) " x="0.0419952545" y="63.9173056" width="7.884" height="3.943"></rect>
                            <path d="M16.534,53.081 L13.434,50.647 L22.001,39.725 L25.101,42.157 L16.534,53.081 Z M33.667,31.237 L30.567,28.803 L39.134,17.881 L42.234,20.313 L33.667,31.237 Z" id="Path_975" fill-rule="nonzero"></path>
                            <path d="M56.086,9.857 L52.144,9.857 L52.144,7.68 L50.801,9.394 L47.701,6.96 L52.567,0.76 C53.0857825,0.0984268237 53.9670965,-0.161254737 54.7617176,0.113320489 C55.5563388,0.387895714 56.0893242,1.13627756 56.089,1.977 L56.086,9.857 Z" id="Path_976"></path>
                            <path d="M56.086,313.975 L52.144,313.975 L52.144,298.769 L56.086,298.769 L56.086,313.975 Z M56.086,283.564 L52.144,283.564 L52.144,268.357 L56.086,268.357 L56.086,283.564 Z M56.086,253.152 L52.144,253.152 L52.144,237.945 L56.086,237.945 L56.086,253.152 Z M56.086,222.74 L52.144,222.74 L52.144,207.531 L56.086,207.531 L56.086,222.74 Z M56.086,192.328 L52.144,192.328 L52.144,177.123 L56.086,177.123 L56.086,192.328 Z M56.086,161.916 L52.144,161.916 L52.144,146.711 L56.086,146.711 L56.086,161.916 Z M56.086,131.504 L52.144,131.504 L52.144,116.299 L56.086,116.299 L56.086,131.504 Z M56.086,101.092 L52.144,101.092 L52.144,85.886 L56.086,85.886 L56.086,101.092 Z M56.086,70.681 L52.144,70.681 L52.144,55.474 L56.086,55.474 L56.086,70.681 Z M56.086,40.269 L52.144,40.269 L52.144,25.062 L56.086,25.062 L56.086,40.269 Z" id="Path_977" fill-rule="nonzero"></path>
                            <rect id="Rectangle_250" x="52.144" y="329.182" width="3.942" height="7.885"></rect>
                        </g>
                        <g id="Group_561" transform="translate(52.144000, 0.001000)">
                            <rect id="Rectangle_251" transform="translate(52.102784, 65.888938) rotate(-38.096085) translate(-52.102784, -65.888938) " x="50.1312273" y="61.9468242" width="3.94311435" height="7.88422863"></rect>
                            <path d="M39.551,53.08 L30.986,42.157 L34.086,39.725 L42.653,50.647 L39.551,53.08 Z M22.419,31.236 L13.852,20.313 L16.952,17.881 L25.519,28.803 L22.419,31.236 Z" id="Path_978" fill-rule="nonzero"></path>
                            <path d="M3.942,9.856 L0,9.856 L0,1.971 C0.000366499596,1.13038286 0.533573363,0.382409969 1.32811906,0.107938747 C2.12266476,-0.166532475 3.00385502,0.0928450947 3.523,0.754 L8.388,6.954 L5.288,9.388 L3.945,7.674 L3.942,9.856 Z" id="Path_979"></path>
                            <path d="M3.942,313.975 L0,313.975 L0,298.769 L3.942,298.769 L3.942,313.975 Z M3.942,283.564 L0,283.564 L0,268.357 L3.942,268.357 L3.942,283.564 Z M3.942,253.152 L0,253.152 L0,237.945 L3.942,237.945 L3.942,253.152 Z M3.942,222.74 L0,222.74 L0,207.531 L3.942,207.531 L3.942,222.74 Z M3.942,192.328 L0,192.328 L0,177.123 L3.942,177.123 L3.942,192.328 Z M3.942,161.916 L0,161.916 L0,146.711 L3.942,146.711 L3.942,161.916 Z M3.942,131.504 L0,131.504 L0,116.299 L3.942,116.299 L3.942,131.504 Z M3.942,101.092 L0,101.092 L0,85.886 L3.942,85.886 L3.942,101.092 Z M3.942,70.681 L0,70.681 L0,55.474 L3.942,55.474 L3.942,70.681 Z M3.942,40.269 L0,40.269 L0,25.062 L3.942,25.062 L3.942,40.269 Z" id="Path_980" fill-rule="nonzero"></path>
                            <rect id="Rectangle_252" x="0" y="329.182" width="3.942" height="7.885"></rect>
                        </g>
                    </g>
                </g>
            </g>
        </g>
    </g>
</svg>